# xmcd CD database file generated by Grip 2.94
# 
# Track frame offsets:
#       150
#       22187
#       36032
#       51525
#       73250
#       90305
#       112897
#       129287
#       147012
#       160315
#       175855
#       195052
#       207182
#       217915
# 
# Disc length: 3152 seconds
# 
# Revision: 3
# Processed by: cddbd v1.4PL0 Copyright (c) Steve Scherf et al.
# Submitted via: Grip 2.94
# 
DISCID=bb0c4e0e
DTITLE=B. B. King - A Christmas Celebration of Hope
DYEAR=1900
DGENRE=
TTITLE0=Please Come Home for Christmas
TTITLE1=Lonesome Christmas
TTITLE2=Back Door Santa
TTITLE3=Christmas In Heaven
TTITLE4=I'll Be Home For Christmas
TTITLE5=To Someone That I Love
TTITLE6=Christmas Celebration
TTITLE7=Merry Christmas Baby
TTITLE8=Christmas Love
TTITLE9=Blue Decorations
TTITLE10=Christmas Comes But Once A Year
TTITLE11=Bringing In A Brand New Year
TTITLE12=Auld Lang Syne
TTITLE13=What A Wonderful World
EXTD=
EXTT0=
EXTT1=
EXTT2=
EXTT3=
EXTT4=
EXTT5=
EXTT6=
EXTT7=
EXTT8=
EXTT9=
EXTT10=
EXTT11=
EXTT12=
EXTT13=
PLAYORDER=
